<?xml version="1.0" encoding="UTF-8"?>
<svg xmlns="http://www.w3.org/2000/svg" viewBox="0 0 488 488">
  <defs>
    <style>
      .cls-1 {
        fill: #727272;
      }

      .cls-2 {
        fill: #fff;
      }

      .cls-3 {
        isolation: isolate;
      }

      .cls-4 {
        fill: #1b3657;
      }

      .cls-5 {
        fill: #d9d9d9;
      }
    </style>
  </defs>
  <g class="cls-3">
    <g id="Inserted_Image_xA0_Image">
      <g>
        <g>
          <path class="cls-5" d="M244,486c-64.64,0-125.41-25.17-171.12-70.88C27.17,369.41,2,308.64,2,244S27.17,118.59,72.88,72.88C118.59,27.17,179.36,2,244,2s125.41,25.17,171.12,70.88c45.71,45.71,70.88,106.48,70.88,171.12s-25.17,125.41-70.88,171.12c-45.71,45.71-106.48,70.88-171.12,70.88Z"/>
          <path class="cls-1" d="M244,4c132.55,0,240,107.45,240,240s-107.45,240-240,240S4,376.55,4,244,111.45,4,244,4M244,0c-32.94,0-64.89,6.45-94.98,19.18-29.06,12.29-55.15,29.88-77.56,52.29-22.41,22.41-40,48.5-52.29,77.56C6.45,179.11,0,211.06,0,244s6.45,64.89,19.18,94.98c12.29,29.06,29.88,55.15,52.29,77.56,22.41,22.41,48.5,40,77.56,52.29,30.08,12.72,62.04,19.18,94.98,19.18s64.89-6.45,94.98-19.18c29.06-12.29,55.15-29.88,77.56-52.29,22.41-22.41,40-48.5,52.29-77.56,12.72-30.08,19.18-62.04,19.18-94.98s-6.45-64.89-19.18-94.98c-12.29-29.06-29.88-55.15-52.29-77.56-22.41-22.41-48.5-40-77.56-52.29C308.89,6.45,276.94,0,244,0h0Z"/>
        </g>
        <circle class="cls-4" cx="244" cy="245.83" r="226.43"/>
      </g>
      <g>
        <path class="cls-2" d="M194.94,288.31c0,9.54,2.76,22.53,15.18,32.56v-63.77c-9.71,8.08-15.18,18.75-15.18,31.2Z"/>
        <path class="cls-2" d="M248.15,213.83c3.88,0,7.61.22,11.2.62v-25.26c-3.34-.28-6.72-.45-10.12-.5-4.49-.06-8.92.09-13.31.43v25.43c3.9-.46,7.96-.73,12.23-.73Z"/>
        <path class="cls-2" d="M235.91,248.98v80.19c3.84,1.25,8.3,1.97,13.49,1.97,3.96,0,7.19-.62,9.95-1.67v-81.16c-3-.94-6.62-1.49-11.2-1.49s-8.5.75-12.23,2.16Z"/>
        <path class="cls-2" d="M282.33,191.12v26.11c22.42,7.01,35.5,23.46,35.5,36.11,0,11.28-6.58,18.01-17.6,18.01-9.66,0-14.05-6.16-17.89-11.63v57.32c4.19-5.91,8.58-11.91,16.76-11.91,9.08,0,18.73,5.59,18.73,15.94,0,17.21-15.07,32.84-35.5,39.58v21.19c17.13,2.61,33.3,8.56,47.95,17.26,20.48,12.16,46.17.67,52.94-23.94,3.94-14.32,5.92-29.58,5.6-45.41-1.39-68.96-47.07-126.31-106.48-138.61Z"/>
        <path class="cls-2" d="M163.55,288.99c0-30.19,14.6-60.58,46.53-71.2v-26.63c-62.59,12.55-109.95,71.3-109.95,141.88,0,14.43,1.98,28.37,5.67,41.52,7.74,27.61,37.64,39.96,61.16,25.89,13.25-7.93,27.76-13.75,43.12-17.04v-22.94c-29.89-8.93-46.53-33.9-46.53-71.49Z"/>
        <path class="cls-2" d="M249.4,364.15c-4.68,0-9.18-.24-13.49-.71v17.67c5.21-.52,10.49-.78,15.83-.78,2.55,0,5.08.08,7.6.2v-16.96c-3.26.38-6.58.59-9.95.59Z"/>
        <circle class="cls-2" cx="94.19" cy="193.65" r="47.25"/>
        <circle class="cls-2" cx="188.69" cy="126.01" r="47.25" transform="translate(-26.02 52.65) rotate(-14.87)"/>
        <circle class="cls-2" cx="298.61" cy="117.56" r="47.25" transform="translate(-17.21 174.54) rotate(-31.72)"/>
        <circle class="cls-2" cx="393.11" cy="188.67" r="47.25"/>
      </g>
    </g>
  </g>
</svg>